<mxfile host="app.diagrams.net" agent="Mozilla/5.0 (Windows NT 10.0; Win64; x64; rv:130.0) Gecko/20100101 Firefox/130.0" version="24.7.13">
  <diagram name="Page-1" id="8gScbv8QGCCl6xXyLt8Q">
    <mxGraphModel dx="1141" dy="1158" grid="0" gridSize="10" guides="1" tooltips="1" connect="1" arrows="1" fold="1" page="0" pageScale="1" pageWidth="850" pageHeight="1100" math="0" shadow="0">
      <root>
        <mxCell id="0" />
        <mxCell id="1" parent="0" />
        <mxCell id="D1xGsc29V1WM8a01vKyT-14" value="" style="rounded=0;whiteSpace=wrap;html=1;fillColor=#cce5ff;strokeColor=#36393d;fillStyle=zigzag-line;strokeWidth=2;" vertex="1" parent="1">
          <mxGeometry x="-235" y="-66" width="449" height="757" as="geometry" />
        </mxCell>
        <mxCell id="D1xGsc29V1WM8a01vKyT-23" style="edgeStyle=none;curved=1;rounded=0;orthogonalLoop=1;jettySize=auto;html=1;fontSize=12;startSize=8;endSize=8;" edge="1" parent="1" source="D1xGsc29V1WM8a01vKyT-1" target="D1xGsc29V1WM8a01vKyT-4">
          <mxGeometry relative="1" as="geometry" />
        </mxCell>
        <mxCell id="D1xGsc29V1WM8a01vKyT-1" value="Back-End Dev" style="rounded=0;whiteSpace=wrap;html=1;fillColor=#cce5ff;strokeColor=#36393d;" vertex="1" parent="1">
          <mxGeometry x="-69" y="237" width="120" height="60" as="geometry" />
        </mxCell>
        <mxCell id="D1xGsc29V1WM8a01vKyT-2" value="&lt;div&gt;Cloud Engineer&lt;/div&gt;" style="rounded=0;whiteSpace=wrap;html=1;fillColor=#cce5ff;strokeColor=#36393d;" vertex="1" parent="1">
          <mxGeometry x="-213" y="237" width="120" height="60" as="geometry" />
        </mxCell>
        <mxCell id="D1xGsc29V1WM8a01vKyT-3" value="Front-End Dev" style="rounded=0;whiteSpace=wrap;html=1;fillColor=#cce5ff;strokeColor=#36393d;" vertex="1" parent="1">
          <mxGeometry x="75" y="237" width="120" height="60" as="geometry" />
        </mxCell>
        <mxCell id="D1xGsc29V1WM8a01vKyT-26" style="edgeStyle=orthogonalEdgeStyle;rounded=0;orthogonalLoop=1;jettySize=auto;html=1;entryX=0.5;entryY=0;entryDx=0;entryDy=0;fontSize=12;startSize=8;endSize=8;" edge="1" parent="1" source="D1xGsc29V1WM8a01vKyT-4" target="D1xGsc29V1WM8a01vKyT-11">
          <mxGeometry relative="1" as="geometry">
            <Array as="points">
              <mxPoint x="-9" y="403" />
              <mxPoint x="-124" y="403" />
            </Array>
          </mxGeometry>
        </mxCell>
        <mxCell id="D1xGsc29V1WM8a01vKyT-27" style="edgeStyle=orthogonalEdgeStyle;rounded=0;orthogonalLoop=1;jettySize=auto;html=1;entryX=0.5;entryY=0;entryDx=0;entryDy=0;fontSize=12;startSize=8;endSize=8;" edge="1" parent="1" target="D1xGsc29V1WM8a01vKyT-13">
          <mxGeometry relative="1" as="geometry">
            <mxPoint x="-8.983050847457775" y="380" as="sourcePoint" />
            <mxPoint x="104" y="415" as="targetPoint" />
            <Array as="points">
              <mxPoint x="-9" y="403" />
              <mxPoint x="104" y="403" />
            </Array>
          </mxGeometry>
        </mxCell>
        <mxCell id="D1xGsc29V1WM8a01vKyT-4" value="UX / Testing" style="rounded=0;whiteSpace=wrap;html=1;fillColor=#cce5ff;strokeColor=#36393d;" vertex="1" parent="1">
          <mxGeometry x="-213" y="328" width="408" height="60" as="geometry" />
        </mxCell>
        <mxCell id="D1xGsc29V1WM8a01vKyT-20" style="edgeStyle=orthogonalEdgeStyle;rounded=0;orthogonalLoop=1;jettySize=auto;html=1;entryX=0.5;entryY=0;entryDx=0;entryDy=0;fontSize=12;startSize=8;endSize=8;" edge="1" parent="1" source="D1xGsc29V1WM8a01vKyT-5" target="D1xGsc29V1WM8a01vKyT-2">
          <mxGeometry relative="1" as="geometry">
            <Array as="points">
              <mxPoint x="-9" y="216" />
              <mxPoint x="-153" y="216" />
            </Array>
          </mxGeometry>
        </mxCell>
        <mxCell id="D1xGsc29V1WM8a01vKyT-21" style="edgeStyle=none;curved=1;rounded=0;orthogonalLoop=1;jettySize=auto;html=1;entryX=0.5;entryY=0;entryDx=0;entryDy=0;fontSize=12;startSize=8;endSize=8;" edge="1" parent="1" source="D1xGsc29V1WM8a01vKyT-5" target="D1xGsc29V1WM8a01vKyT-1">
          <mxGeometry relative="1" as="geometry" />
        </mxCell>
        <mxCell id="D1xGsc29V1WM8a01vKyT-22" style="edgeStyle=orthogonalEdgeStyle;rounded=0;orthogonalLoop=1;jettySize=auto;html=1;entryX=0.5;entryY=0;entryDx=0;entryDy=0;fontSize=12;startSize=8;endSize=8;" edge="1" parent="1" source="D1xGsc29V1WM8a01vKyT-5" target="D1xGsc29V1WM8a01vKyT-3">
          <mxGeometry relative="1" as="geometry">
            <Array as="points">
              <mxPoint x="-9" y="216" />
              <mxPoint x="135" y="216" />
            </Array>
          </mxGeometry>
        </mxCell>
        <mxCell id="D1xGsc29V1WM8a01vKyT-5" value="Project Manager" style="rounded=0;whiteSpace=wrap;html=1;fillColor=#cce5ff;strokeColor=#36393d;" vertex="1" parent="1">
          <mxGeometry x="-213" y="146" width="408" height="60" as="geometry" />
        </mxCell>
        <mxCell id="D1xGsc29V1WM8a01vKyT-7" value="Client" style="rounded=0;whiteSpace=wrap;html=1;fillColor=#cce5ff;strokeColor=#36393d;" vertex="1" parent="1">
          <mxGeometry x="-213" y="50" width="182" height="60" as="geometry" />
        </mxCell>
        <mxCell id="D1xGsc29V1WM8a01vKyT-8" value="Supervisor" style="rounded=0;whiteSpace=wrap;html=1;fillColor=#cce5ff;strokeColor=#36393d;" vertex="1" parent="1">
          <mxGeometry x="17" y="50" width="178" height="60" as="geometry" />
        </mxCell>
        <mxCell id="D1xGsc29V1WM8a01vKyT-16" value="" style="edgeStyle=orthogonalEdgeStyle;rounded=0;orthogonalLoop=1;jettySize=auto;html=1;fontSize=12;startSize=8;endSize=8;" edge="1" parent="1" source="D1xGsc29V1WM8a01vKyT-9" target="D1xGsc29V1WM8a01vKyT-8">
          <mxGeometry relative="1" as="geometry" />
        </mxCell>
        <mxCell id="D1xGsc29V1WM8a01vKyT-17" style="edgeStyle=orthogonalEdgeStyle;rounded=0;orthogonalLoop=1;jettySize=auto;html=1;entryX=0.5;entryY=0;entryDx=0;entryDy=0;fontSize=12;startSize=8;endSize=8;" edge="1" parent="1" source="D1xGsc29V1WM8a01vKyT-9" target="D1xGsc29V1WM8a01vKyT-7">
          <mxGeometry relative="1" as="geometry" />
        </mxCell>
        <mxCell id="D1xGsc29V1WM8a01vKyT-9" value="Sponsor" style="rounded=0;whiteSpace=wrap;html=1;fillColor=#cce5ff;strokeColor=#36393d;" vertex="1" parent="1">
          <mxGeometry x="-213" y="-46" width="407" height="60" as="geometry" />
        </mxCell>
        <mxCell id="D1xGsc29V1WM8a01vKyT-30" style="edgeStyle=none;curved=1;rounded=0;orthogonalLoop=1;jettySize=auto;html=1;entryX=0.5;entryY=0;entryDx=0;entryDy=0;fontSize=12;startSize=8;endSize=8;" edge="1" parent="1" source="D1xGsc29V1WM8a01vKyT-10" target="D1xGsc29V1WM8a01vKyT-12">
          <mxGeometry relative="1" as="geometry" />
        </mxCell>
        <mxCell id="D1xGsc29V1WM8a01vKyT-10" value="Creators" style="rounded=0;whiteSpace=wrap;html=1;fillColor=#cce5ff;strokeColor=#36393d;" vertex="1" parent="1">
          <mxGeometry x="-213" y="517" width="408" height="60" as="geometry" />
        </mxCell>
        <mxCell id="D1xGsc29V1WM8a01vKyT-11" value="Support" style="rounded=0;whiteSpace=wrap;html=1;fillColor=#cce5ff;strokeColor=#36393d;" vertex="1" parent="1">
          <mxGeometry x="-213" y="423" width="178" height="60" as="geometry" />
        </mxCell>
        <mxCell id="D1xGsc29V1WM8a01vKyT-12" value="Viewers" style="rounded=0;whiteSpace=wrap;html=1;fillColor=#cce5ff;strokeColor=#36393d;" vertex="1" parent="1">
          <mxGeometry x="-213" y="611" width="408" height="60" as="geometry" />
        </mxCell>
        <mxCell id="D1xGsc29V1WM8a01vKyT-13" value="Administrators" style="rounded=0;whiteSpace=wrap;html=1;fillColor=#cce5ff;strokeColor=#36393d;" vertex="1" parent="1">
          <mxGeometry x="16" y="423" width="176" height="60" as="geometry" />
        </mxCell>
        <mxCell id="D1xGsc29V1WM8a01vKyT-18" style="edgeStyle=none;curved=1;rounded=0;orthogonalLoop=1;jettySize=auto;html=1;entryX=0.785;entryY=0.059;entryDx=0;entryDy=0;entryPerimeter=0;fontSize=12;startSize=8;endSize=8;" edge="1" parent="1" source="D1xGsc29V1WM8a01vKyT-8" target="D1xGsc29V1WM8a01vKyT-5">
          <mxGeometry relative="1" as="geometry" />
        </mxCell>
        <mxCell id="D1xGsc29V1WM8a01vKyT-19" style="edgeStyle=none;curved=1;rounded=0;orthogonalLoop=1;jettySize=auto;html=1;entryX=0.22;entryY=0.02;entryDx=0;entryDy=0;entryPerimeter=0;fontSize=12;startSize=8;endSize=8;" edge="1" parent="1" source="D1xGsc29V1WM8a01vKyT-7" target="D1xGsc29V1WM8a01vKyT-5">
          <mxGeometry relative="1" as="geometry" />
        </mxCell>
        <mxCell id="D1xGsc29V1WM8a01vKyT-24" style="edgeStyle=none;curved=1;rounded=0;orthogonalLoop=1;jettySize=auto;html=1;entryX=0.853;entryY=0.006;entryDx=0;entryDy=0;entryPerimeter=0;fontSize=12;startSize=8;endSize=8;" edge="1" parent="1" source="D1xGsc29V1WM8a01vKyT-3" target="D1xGsc29V1WM8a01vKyT-4">
          <mxGeometry relative="1" as="geometry" />
        </mxCell>
        <mxCell id="D1xGsc29V1WM8a01vKyT-25" style="edgeStyle=none;curved=1;rounded=0;orthogonalLoop=1;jettySize=auto;html=1;entryX=0.147;entryY=-0.004;entryDx=0;entryDy=0;entryPerimeter=0;fontSize=12;startSize=8;endSize=8;" edge="1" parent="1" source="D1xGsc29V1WM8a01vKyT-2" target="D1xGsc29V1WM8a01vKyT-4">
          <mxGeometry relative="1" as="geometry" />
        </mxCell>
        <mxCell id="D1xGsc29V1WM8a01vKyT-28" style="edgeStyle=none;curved=1;rounded=0;orthogonalLoop=1;jettySize=auto;html=1;entryX=0.777;entryY=-0.013;entryDx=0;entryDy=0;entryPerimeter=0;fontSize=12;startSize=8;endSize=8;" edge="1" parent="1" source="D1xGsc29V1WM8a01vKyT-13" target="D1xGsc29V1WM8a01vKyT-10">
          <mxGeometry relative="1" as="geometry" />
        </mxCell>
        <mxCell id="D1xGsc29V1WM8a01vKyT-29" style="edgeStyle=none;curved=1;rounded=0;orthogonalLoop=1;jettySize=auto;html=1;entryX=0.22;entryY=-0.043;entryDx=0;entryDy=0;entryPerimeter=0;fontSize=12;startSize=8;endSize=8;" edge="1" parent="1" source="D1xGsc29V1WM8a01vKyT-11" target="D1xGsc29V1WM8a01vKyT-10">
          <mxGeometry relative="1" as="geometry" />
        </mxCell>
      </root>
    </mxGraphModel>
  </diagram>
</mxfile>
